<svg width="70" height="56" viewBox="0 0 70 56" fill="none" xmlns="http://www.w3.org/2000/svg">
<path d="M60.6512 48.4715C60.6512 49.3283 60.6512 50.0598 60.6512 50.7912C60.6303 53.7169 58.6062 55.9112 55.7055 55.953C50.8016 56.0157 45.9185 56.0157 41.0146 55.953C38.1348 55.9112 36.1315 53.7378 36.0898 50.8539C36.0689 50.1016 36.0898 49.3492 36.0898 48.4715C35.7141 48.4715 35.3803 48.4715 35.0464 48.4715C25.1968 48.4715 15.368 48.4715 5.51838 48.4715C3.84896 48.4715 2.38821 48.0118 1.26134 46.7161C0.468367 45.7966 0.00927459 44.7308 0.00927459 43.4978C0.00927459 30.6665 -0.0115932 17.8352 0.00927459 5.00389C0.00927459 2.28716 2.13779 0.176471 4.91322 0.00928796C5.12189 -0.0116099 5.33057 0.00928796 5.53925 0.00928796C25.1968 0.00928796 44.8543 0.00928796 64.5118 0.00928796C67.3915 0.00928796 69.4157 1.57663 69.9165 4.20977C69.9791 4.58593 70 4.98299 70 5.38005C70 17.9397 70 30.5202 70 43.0799C70 46.2981 67.8923 48.4297 64.6787 48.4506C63.3849 48.4924 62.0494 48.4715 60.6512 48.4715ZM3.34813 15.9544C3.34813 16.2888 3.34813 16.5395 3.34813 16.8112C3.34813 25.5047 3.34813 34.1774 3.34813 42.8709C3.34813 44.6054 3.86982 45.107 5.58099 45.107C15.4515 45.107 25.322 45.107 35.1924 45.107C35.4637 45.107 35.735 45.0861 36.0898 45.0652C36.0898 43.3515 36.0898 41.7215 36.0898 40.0706C36.0898 37.8554 37.1332 36.2881 39.1156 35.3685C39.533 35.1805 39.6164 34.9506 39.6164 34.5326C39.6164 33.4668 39.5956 32.3801 39.679 31.3352C40.0338 27.2184 43.3935 23.8329 47.4001 23.4567C51.7615 23.0597 55.7264 25.6928 56.7281 29.8515C57.0828 31.3352 56.9993 32.9444 57.0619 34.5117C57.0828 34.9506 57.1871 35.1805 57.6254 35.3894C59.6078 36.3089 60.6303 37.8972 60.6303 40.0915C60.6303 41.0528 60.6303 42.0141 60.6303 42.9963C60.6303 43.6859 60.6303 44.3755 60.6303 45.107C61.9659 45.107 63.1971 45.107 64.4074 45.107C66.1812 45.107 66.682 44.6054 66.682 42.8291C66.682 34.1774 66.682 25.5047 66.682 16.853C66.682 16.5813 66.682 16.2888 66.682 15.9753C45.5638 15.9544 24.5081 15.9544 3.34813 15.9544ZM66.7029 12.5062C66.7029 10.0612 66.7029 7.72061 66.7029 5.38005C66.7029 3.95899 66.1186 3.39475 64.6996 3.39475C44.9169 3.39475 25.1341 3.39475 5.35144 3.39475C3.91156 3.39475 3.34813 3.97989 3.34813 5.46364C3.34813 7.57433 3.34813 9.68502 3.34813 11.7957C3.34813 12.0256 3.369 12.2555 3.38986 12.5062C24.5081 12.5062 45.5429 12.5062 66.7029 12.5062ZM48.3601 38.2734C46.0437 38.2734 43.7274 38.2734 41.4111 38.2734C39.8668 38.2734 39.3869 38.7331 39.3869 40.2796C39.3869 43.7277 39.3869 47.155 39.3869 50.6031C39.3869 52.0451 39.9294 52.6093 41.3693 52.6093C46.0229 52.6093 50.6973 52.6093 55.3508 52.6093C56.7698 52.6093 57.3332 52.0242 57.3332 50.6031C57.3332 47.155 57.3332 43.7277 57.3332 40.2796C57.3332 38.8585 56.7489 38.2943 55.3299 38.2943C52.9927 38.2734 50.6764 38.2734 48.3601 38.2734ZM53.7648 34.8879C53.7648 33.8012 53.8066 32.7772 53.7648 31.7741C53.6187 29.2246 51.7406 27.2393 49.153 26.8213C46.7532 26.4242 44.27 27.8244 43.3518 30.1023C42.7257 31.6487 42.997 33.2579 42.997 34.8879C46.6072 34.8879 50.1338 34.8879 53.7648 34.8879Z" fill="#1FC700"/>
<path d="M20.0008 32.5897C17.455 32.5897 14.9091 32.5897 12.3632 32.5897C12.1128 32.5897 11.8415 32.5897 11.5911 32.5688C10.6938 32.4852 10.0469 31.7747 10.0469 30.9179C10.0469 30.0611 10.7146 29.3505 11.612 29.2878C12.1128 29.246 12.5928 29.2669 13.0936 29.2669C17.9767 29.2669 22.8806 29.2669 27.7637 29.2669C28.0141 29.2669 28.2854 29.246 28.5358 29.2878C29.4122 29.3923 30.0591 30.1238 30.0383 31.0015C30.0174 31.8374 29.3914 32.5479 28.5149 32.5688C26.9916 32.6106 25.4473 32.5897 23.9031 32.6106C22.5884 32.5897 21.2946 32.5897 20.0008 32.5897Z" fill="#1FC700"/>
<path d="M17.4738 40.9487C15.6374 40.9487 13.7802 40.9487 11.9438 40.9487C10.9213 40.9487 10.2535 40.468 10.0657 39.6321C9.8153 38.5663 10.6083 37.6259 11.8395 37.605C13.0498 37.5841 14.281 37.605 15.5122 37.605C18.0581 37.605 20.604 37.5841 23.1498 37.605C24.6315 37.6259 25.4662 38.9216 24.7984 40.0918C24.4228 40.7606 23.8176 40.9696 23.0872 40.9696C21.2091 40.9487 19.3519 40.9487 17.4738 40.9487Z" fill="#1FC700"/>
<path d="M46.71 45.4619C46.71 44.626 46.6891 43.7901 46.71 42.975C46.7517 41.951 47.4195 41.2823 48.3794 41.3032C49.2767 41.3241 49.9862 41.9928 50.0071 42.9541C50.0488 44.626 50.0279 46.2769 50.0071 47.9487C49.9862 48.9518 49.2558 49.6415 48.3376 49.6206C47.4195 49.5997 46.7517 48.9518 46.71 47.9696C46.6682 47.1337 46.71 46.2978 46.71 45.4619Z" fill="#1FC700"/>
</svg>
