<svg width="67" height="56" viewBox="0 0 67 56" fill="none" xmlns="http://www.w3.org/2000/svg">
<path d="M67 48.7397C66.6678 49.2557 66.1782 49.4277 65.5663 49.4105C64.5872 49.3761 63.608 49.3933 62.559 49.3933C62.4366 51.6465 61.5624 53.4869 59.709 54.7941C58.4676 55.6713 57.0514 56.0669 55.5128 55.9809C52.0159 55.7745 49.8304 53.5557 49.166 49.4449C41.333 49.4449 33.5 49.4449 25.6146 49.4449C25.5271 51.5949 24.6879 53.4009 22.9045 54.7081C21.6981 55.6025 20.3168 56.0325 18.8131 55.9981C15.2114 55.9121 12.9909 53.6933 12.2216 49.3933C10.8927 49.3933 9.54645 49.3933 8.20016 49.3933C7.69311 49.3933 7.20355 49.3933 6.6965 49.3933C5.38518 49.3761 4.49348 48.4989 4.45851 47.2089C4.44102 46.5037 4.45851 45.7985 4.45851 45.0073C3.53184 45.0073 2.64013 45.0073 1.76591 45.0073C1.52113 45.0073 1.29384 45.0245 1.04906 45.0073C0.419624 44.9557 0 44.5429 0 43.9753C0 43.4077 0.419623 42.9605 1.03158 42.9605C4.38857 42.9433 7.74556 42.9433 11.1026 42.9605C11.7145 42.9605 12.1516 43.4077 12.1516 43.9753C12.1516 44.5601 11.7145 44.9901 11.0501 45.0073C9.80871 45.0245 8.56733 45.0073 7.32594 45.0073C7.09864 45.0073 6.85386 45.0073 6.59159 45.0073C6.59159 45.7985 6.59159 46.5209 6.59159 47.2777C6.76644 47.2949 6.9238 47.3293 7.09864 47.3293C8.77713 47.3293 10.4556 47.3293 12.1341 47.3465C12.5013 47.3465 12.6936 47.2433 12.8685 46.8993C14.0749 44.3709 16.1031 42.9777 18.9355 42.9777C21.768 42.9777 23.8137 44.3709 25.0201 46.8821C25.16 47.1745 25.2824 47.3465 25.667 47.3465C32.6957 47.3293 39.7069 47.3293 46.7356 47.3293C46.7706 47.3293 46.8231 47.3121 46.9804 47.2949C46.9804 47.0885 46.9804 46.8649 46.9804 46.6413C46.9804 44.3537 46.9804 42.0489 46.9804 39.7613C46.9804 38.9701 47.4175 38.5229 48.0994 38.5573C48.7114 38.5917 49.0611 39.0217 49.0611 39.7785C49.0611 42.0317 49.0611 44.2849 49.0611 46.5381C49.0611 46.7789 49.0611 47.0025 49.0611 47.2261C49.5331 47.5185 49.6206 47.1917 49.7604 46.8993C51.0193 44.3365 53.0825 42.9433 55.9849 42.9949C58.7474 43.0465 60.7231 44.4053 61.912 46.8649C62.1044 47.2605 62.2967 47.3981 62.7338 47.3809C63.4332 47.3465 64.1151 47.3637 64.8494 47.3637C64.8494 45.8329 64.8494 44.3709 64.8494 42.8229C64.4473 42.8229 64.0626 42.8229 63.6605 42.8229C61.8421 42.7713 60.4609 41.4125 60.4084 39.6237C60.3909 38.9529 60.3909 38.2993 60.4084 37.6285C60.4084 36.7169 60.7581 36.3729 61.6673 36.3729C62.6464 36.3557 63.608 36.3729 64.6046 36.3729C64.4123 35.2721 63.3108 34.2746 62.0869 34.0854C61.8071 34.0338 61.5274 34.0165 61.2476 34.0165C57.3661 34.0165 53.4846 34.0165 49.6031 34.0165C49.4457 34.0165 49.3058 34.0338 49.0611 34.051C49.0611 34.4294 49.0785 34.7905 49.0611 35.1345C49.0436 35.7537 48.6414 36.1837 48.0644 36.2009C47.47 36.2353 47.0154 35.7881 46.9629 35.1517C46.9455 34.9625 46.9629 34.7733 46.9629 34.567C46.9629 28.7878 46.9629 23.0258 46.9629 17.2466C46.9629 16.9886 46.9629 16.7306 46.9629 16.4382C33.4825 16.4382 20.0371 16.4382 6.53914 16.4382C6.53914 16.7306 6.53914 16.9714 6.53914 17.2294C6.53914 23.0258 6.53914 28.8222 6.53914 34.6014C6.53914 34.8422 6.55663 35.0829 6.52166 35.3065C6.45172 35.8225 6.11952 36.1149 5.61247 36.1665C5.10542 36.2181 4.70329 35.9945 4.54593 35.5129C4.45851 35.2549 4.45851 34.9626 4.45851 34.6874C4.45851 28.7362 4.45851 22.8022 4.45851 16.851C4.45851 15.1138 5.26279 14.3226 6.99374 14.3226C11.4348 14.3226 15.8933 14.3226 20.3343 14.3226C20.5441 14.3226 20.7539 14.3226 20.9637 14.3226C20.9812 14.2882 20.9812 14.2538 20.9987 14.2194C20.8413 14.1334 20.684 14.0474 20.5091 13.9958C17.904 12.9638 15.2988 11.949 12.6936 10.8998C12.3614 10.7622 11.9593 10.487 11.8544 10.1946C11.7495 9.90221 11.8719 9.42062 12.0642 9.14542C12.3614 8.73262 12.8335 8.74982 13.3056 8.93902C15.2463 9.71302 17.1871 10.4698 19.1279 11.2266C19.3901 11.3298 19.6524 11.4158 19.9496 11.433C19.7398 11.2954 19.5475 11.175 19.3552 11.0202C18.1313 10.0914 16.8199 9.24862 15.7009 8.21662C14.2148 6.84062 13.8476 5.08623 14.5295 3.19423C15.1764 1.38824 16.5402 0.30464 18.4809 0.0638402C20.5616 -0.194159 22.3275 0.545439 23.2717 2.38583C24.4256 4.63903 25.2998 7.02982 26.279 9.35182C26.4538 9.76462 26.5762 10.1946 26.7685 10.7622C26.9084 10.401 26.9958 10.1602 27.0832 9.91942C28.0799 7.47702 28.9366 4.96583 30.143 2.62663C31.8215 -0.624159 36.28 -0.882155 38.3956 1.99024C39.8118 3.89943 39.6545 6.51382 37.9061 8.16502C36.8395 9.16262 35.5981 9.98821 34.4267 10.8826C34.1469 11.089 33.8672 11.261 33.6224 11.5534C34.1294 11.3642 34.619 11.175 35.126 10.9858C36.8395 10.315 38.553 9.62702 40.2839 8.95622C41.0882 8.64662 41.84 9.11102 41.8051 9.88502C41.7876 10.4698 41.4029 10.7278 40.8959 10.9342C38.3082 11.949 35.7205 12.9638 33.1328 13.9958C32.958 14.0646 32.7831 14.1334 32.6083 14.357C32.8181 14.357 33.0279 14.357 33.2552 14.357C37.6962 14.357 42.1547 14.357 46.5958 14.357C48.2743 14.357 49.0785 15.1482 49.0785 16.7994C49.0785 17.4186 49.0785 18.0378 49.0785 18.7602C49.3583 18.7602 49.5856 18.7602 49.8129 18.7602C52.1383 18.7602 54.4812 18.7602 56.8066 18.7602C59.4992 18.7602 61.3526 20.5834 61.37 23.2494C61.37 24.0062 61.5798 24.849 60.5658 25.2274C61.1078 27.3946 61.6498 29.5446 62.2093 31.6774C62.2443 31.8322 62.4541 32.0386 62.6114 32.073C64.9368 32.675 66.3706 34.137 66.8951 36.4417C66.8951 36.4761 66.9475 36.5105 66.9825 36.5277C67 40.5697 67 44.6461 67 48.7397ZM60.1286 31.8838C59.5866 29.751 59.0621 27.7386 58.5551 25.6918C58.4501 25.2618 58.2753 25.1586 57.8557 25.1586C55.1106 25.1758 52.3656 25.1586 49.6206 25.1758C49.4632 25.1758 49.2884 25.2102 49.131 25.2274C49.131 27.4806 49.131 29.665 49.131 31.8838C52.7852 31.8838 56.4045 31.8838 60.1286 31.8838ZM55.7925 53.9341C58.2753 53.9857 60.3559 52.0421 60.4259 49.5825C60.4958 47.1573 58.4676 45.0589 56.0023 45.0073C53.4671 44.9557 51.3865 46.9165 51.334 49.4105C51.2816 51.8185 53.2923 53.8653 55.7925 53.9341ZM18.8656 53.9341C21.3659 53.9857 23.4115 52.0593 23.4815 49.5653C23.5689 47.1401 21.5232 45.0417 19.0579 45.0073C16.5577 44.9557 14.4595 46.8993 14.4071 49.3417C14.3372 51.8185 16.3304 53.8653 18.8656 53.9341ZM28.5694 11.9834C28.8492 11.8458 28.9715 11.8114 29.059 11.7426C30.7724 10.6762 32.4859 9.62702 34.1644 8.50902C34.9687 7.97582 35.7555 7.37382 36.4374 6.68582C37.8011 5.32703 37.364 3.10823 35.6331 2.31704C34.3392 1.71504 32.8181 2.12783 32.0663 3.41783C31.4893 4.41543 30.9997 5.48183 30.5801 6.54823C29.8807 8.30262 29.2688 10.0742 28.5694 11.9834ZM24.7753 11.8974C24.8278 11.863 24.8802 11.8286 24.9327 11.7942C24.3032 10.0742 23.7088 8.33702 23.0094 6.61702C22.5373 5.46463 22.0128 4.32943 21.3833 3.26303C20.7714 2.24824 19.7223 1.90424 18.5509 2.12783C17.4494 2.33423 16.715 3.00504 16.4178 4.07143C16.1031 5.24103 16.5052 6.22142 17.4144 7.01262C19.6874 8.93902 22.2401 10.401 24.7753 11.8974ZM49.131 23.0774C52.5404 23.0774 55.8974 23.0774 59.2719 23.0774C59.3069 21.753 58.3452 20.7898 56.9815 20.7898C54.656 20.7726 52.3306 20.7898 49.9877 20.7898C49.708 20.7898 49.4282 20.7898 49.131 20.7898C49.131 21.5638 49.131 22.2862 49.131 23.0774ZM62.6114 38.4369C62.2792 40.3633 63.066 41.1029 64.8494 40.6557C64.8494 39.9161 64.8494 39.1765 64.8494 38.4197C64.1675 38.4197 63.5381 38.4197 62.9087 38.4197C62.8038 38.4025 62.7163 38.4197 62.6114 38.4369Z" fill="#1FC700"/>
<path d="M24.9868 30.0941C25.4764 30.8165 25.9484 31.5045 26.403 32.1925C26.8401 32.8633 26.7702 33.4653 26.1932 33.8093C25.6687 34.1361 25.0917 33.9469 24.6371 33.3105C24.1825 32.6569 23.7104 32.0033 23.3083 31.3325C23.0111 30.8165 22.6439 30.5929 22.0494 30.6789C21.7522 30.7133 21.455 30.6789 21.0878 30.6789C21.0878 31.4185 21.0878 32.0721 21.0878 32.7257C21.0703 33.4997 20.7031 33.9469 20.0562 33.9469C19.4093 33.9469 19.0072 33.4997 18.9897 32.7429C18.9722 29.9393 18.9722 27.1185 18.9897 24.3149C18.9897 23.4722 19.3918 23.1109 20.2486 23.0938C21.0528 23.0938 21.8571 23.0938 22.6614 23.0938C24.4448 23.0938 25.8435 24.0226 26.438 25.5533C27.015 27.0669 26.5779 28.6493 25.2666 29.8017C25.1966 29.9049 25.1092 29.9909 24.9868 30.0941ZM21.1577 28.5977C21.8396 28.5977 22.4691 28.6493 23.081 28.5805C23.9727 28.4773 24.5847 27.7721 24.6021 26.9293C24.6196 26.1037 24.0601 25.3469 23.2209 25.2265C22.5565 25.1405 21.8571 25.2093 21.1577 25.2093C21.1577 26.3617 21.1577 27.4797 21.1577 28.5977Z" fill="#1FC700"/>
<path d="M30.1071 25.1749C30.1071 25.9661 30.1071 26.6885 30.1071 27.5141C30.824 27.5141 31.5583 27.4969 32.2927 27.5141C32.7997 27.5313 33.1844 27.7377 33.3417 28.2193C33.4816 28.6665 33.3942 29.0965 32.9746 29.3545C32.7473 29.4921 32.45 29.5437 32.1703 29.5609C31.5059 29.5953 30.824 29.5781 30.1071 29.5781C30.1071 30.3693 30.1071 31.1089 30.1071 31.9345C30.9814 31.9345 31.8381 31.9345 32.7123 31.9345C32.9921 31.9345 33.2893 31.9173 33.569 31.9517C34.1635 32.0205 34.5482 32.4505 34.5307 32.9837C34.5132 33.5169 34.1285 33.9469 33.5341 33.9813C32.7648 34.0157 32.0129 33.9985 31.2436 33.9985C30.5442 33.9985 29.8449 34.0157 29.1455 33.9985C28.3412 33.9813 27.9741 33.6201 27.9741 32.8461C27.9566 29.9909 27.9566 27.1357 27.9741 24.2805C27.9741 23.5065 28.3587 23.1281 29.1455 23.1281C30.5617 23.1109 31.978 23.1109 33.3942 23.1281C34.0936 23.1281 34.5482 23.5925 34.5307 24.1945C34.5132 24.7793 34.0761 25.1749 33.3942 25.1749C32.3102 25.1749 31.2261 25.1749 30.1071 25.1749Z" fill="#1FC700"/>
<path d="M37.9568 25.1753C37.9568 26.0009 37.9568 26.7233 37.9568 27.4801C38.8311 27.6005 40.1424 27.2049 40.1074 28.5981C40.0724 29.9225 38.8311 29.4753 37.9743 29.6129C37.9743 30.3697 37.9743 31.1093 37.9743 31.9349C38.8485 31.9349 39.7053 31.9349 40.5795 31.9349C40.8592 31.9349 41.1565 31.9177 41.4362 31.9521C42.0132 32.0209 42.4154 32.4509 42.3979 32.9841C42.3804 33.5173 41.9782 33.9473 41.4013 33.9817C40.6319 34.0161 39.8801 33.9989 39.1108 33.9989C38.3939 33.9989 37.6771 34.0161 36.9602 33.9989C36.2434 33.9817 35.8587 33.6205 35.8412 32.9325C35.8238 30.0429 35.8238 27.1533 35.8412 24.2465C35.8412 23.5241 36.2434 23.1457 36.9952 23.1457C38.4114 23.1285 39.8277 23.1285 41.2439 23.1457C41.9433 23.1457 42.4154 23.5929 42.3979 24.1949C42.3804 24.7969 41.9258 25.1925 41.2089 25.1925C40.1249 25.1753 39.0584 25.1753 37.9568 25.1753Z" fill="#1FC700"/>
<path d="M13.322 25.1765C13.322 25.9677 13.322 26.6901 13.322 27.5157C14.0039 27.5157 14.6683 27.5157 15.3327 27.5157C16.1544 27.5329 16.6265 27.8941 16.6265 28.5477C16.6265 29.2013 16.1719 29.5625 15.3327 29.5625C14.6858 29.5625 14.0388 29.5625 13.322 29.5625C13.3045 29.8549 13.287 30.0785 13.287 30.3193C13.287 31.1965 13.3045 32.0737 13.2695 32.9509C13.2346 33.5873 12.8149 33.9657 12.2205 33.9657C11.6435 33.9657 11.2064 33.5701 11.1889 32.9337C11.1714 29.9925 11.1714 27.0685 11.1889 24.1273C11.1889 23.4737 11.6085 23.1125 12.2904 23.1125C13.7241 23.0953 15.1753 23.0953 16.609 23.1125C17.2734 23.1125 17.728 23.5425 17.7455 24.1101C17.763 24.7121 17.2909 25.1421 16.5916 25.1593C15.525 25.1765 14.441 25.1765 13.322 25.1765Z" fill="#1FC700"/>
<path d="M35.789 42.9434C38.3243 42.9434 40.842 42.9434 43.3772 42.9434C44.164 42.9434 44.6536 43.3906 44.6186 44.0442C44.5837 44.6117 44.1291 44.9902 43.4472 45.0074C42.2757 45.0246 41.0868 45.0074 39.9153 45.0074C36.0338 45.0074 32.1523 45.0074 28.2708 45.0074C28.0085 45.0074 27.7287 44.9901 27.5015 44.9041C27.0294 44.7149 26.8021 44.3194 26.8895 43.8206C26.9944 43.2702 27.3616 42.9606 27.956 42.9606C29.4422 42.9606 30.9284 42.9606 32.3971 42.9606C33.5161 42.9434 34.6525 42.9434 35.789 42.9434Z" fill="#1FC700"/>
<path d="M10.0343 38.5406C12.1674 38.5406 14.3005 38.5406 16.4336 38.5406C17.2729 38.5406 17.7449 38.919 17.7624 39.5554C17.7799 40.1918 17.2554 40.6046 16.3986 40.6046C12.1325 40.6046 7.84881 40.6046 3.58263 40.6046C2.65596 40.6046 2.07897 40.0542 2.25382 39.349C2.41117 38.7298 2.86577 38.5234 3.47772 38.5234C5.66326 38.5406 7.8488 38.5406 10.0343 38.5406Z" fill="#1FC700"/>
<path d="M55.8617 51.5943C54.6553 51.5943 53.6937 50.6483 53.7112 49.4615C53.7287 48.2919 54.7078 47.3287 55.8967 47.3459C57.0856 47.3631 58.0648 48.3263 58.0473 49.4959C58.0473 50.6655 57.0682 51.5943 55.8617 51.5943Z" fill="#1FC700"/>
<path d="M21.104 49.4783C21.104 50.6651 20.1424 51.5939 18.936 51.5767C17.7295 51.5767 16.7679 50.6135 16.7854 49.4439C16.8029 48.2915 17.7995 47.3111 18.9709 47.3283C20.1599 47.3455 21.104 48.2915 21.104 49.4783Z" fill="#1FC700"/>
</svg>
