<svg width="56" height="56" viewBox="0 0 56 56" fill="none" xmlns="http://www.w3.org/2000/svg">
<path d="M45.0545 46.8825C44.2099 46.0392 43.3813 45.2278 42.5845 44.4004C42.3773 44.1776 42.1701 43.9071 42.0745 43.6207C41.8992 43.0797 42.1542 42.5229 42.6323 42.2365C43.1103 41.9501 43.7318 41.9978 44.178 42.4274C44.943 43.1593 45.676 43.9071 46.425 44.655C46.5684 44.7982 46.7119 44.9254 46.8871 45.0846C50.8711 40.5658 53.0225 35.3628 53.4209 29.3325C52.1619 29.3325 50.9827 29.3484 49.7875 29.3325C48.8951 29.3166 48.3373 28.7915 48.3692 27.9959C48.4011 27.264 48.9269 26.7867 49.7875 26.7708C50.7755 26.7549 51.7795 26.7708 52.7675 26.7708C52.9587 26.7708 53.1499 26.7549 53.4049 26.7389C53.0384 20.7404 50.8711 15.5534 46.8553 11.0028C46.4569 11.3846 46.0904 11.7665 45.7238 12.1325C45.2298 12.6257 44.7517 13.119 44.2418 13.5963C43.6522 14.1532 42.8872 14.1691 42.3773 13.644C41.8673 13.1349 41.8992 12.3711 42.457 11.7824C43.2856 10.9391 44.1462 10.1117 45.0545 9.2048C40.5287 5.19518 35.3336 3.03126 29.2621 2.63348C29.2621 3.19037 29.2621 3.68362 29.2621 4.19278C29.2621 4.86105 29.278 5.54523 29.2621 6.2135C29.2461 7.12044 28.7362 7.67733 27.9553 7.66142C27.2064 7.64551 26.7123 7.10453 26.6964 6.22941C26.6805 5.27474 26.6964 4.32007 26.6964 3.36539C26.6964 3.14264 26.6964 2.93579 26.6964 2.63348C20.6726 2.99944 15.4616 5.17927 10.888 9.17298C11.6051 9.88899 12.3223 10.5732 13.0234 11.2733C13.2306 11.4801 13.4537 11.687 13.6449 11.9097C14.0752 12.4348 14.0433 13.1826 13.5812 13.644C13.1031 14.1214 12.3382 14.1373 11.8123 13.6281C11.0155 12.8803 10.2665 12.0847 9.48567 11.321C9.37412 11.2096 9.24663 11.1141 9.11914 10.9869C7.01561 13.3099 5.40609 15.9034 4.29058 18.7993C3.97186 19.6266 3.71689 20.4858 3.44598 21.3451C3.191 22.1406 2.5695 22.5066 1.86832 22.3156C1.13527 22.1088 0.784686 21.4405 1.02372 20.6131C4.24277 10.064 11.1908 3.25401 21.9316 0.787779C31.8596 -1.48752 40.6722 1.20147 47.8911 8.39333C53.9467 14.4237 56.5443 21.8701 55.9068 30.3826C54.9985 41.9819 46.664 51.9264 35.4133 54.9972C34.5687 55.22 33.9153 54.9177 33.6922 54.2017C33.4691 53.4538 33.8516 52.8174 34.744 52.5787C38.473 51.5286 41.8036 49.7465 44.7199 47.2007C44.8155 47.1053 44.8952 47.0257 45.0545 46.8825Z" fill="#1FC700"/>
<path d="M10.1063 37.7647C12.0505 41.2651 14.7277 43.9382 18.2336 45.8953C18.7117 44.8611 19.1738 43.8746 19.636 42.8881C20.1937 41.6947 20.7037 41.4879 21.8989 42.013C23.4925 42.7131 25.1817 43.079 26.9027 43.254C28.337 43.3972 29.2453 44.3996 29.2453 45.8476C29.2612 48.7434 29.2612 51.6392 29.2453 54.551C29.2453 55.5057 28.7035 56.0148 27.7314 55.9989C21.5642 55.8875 15.9707 54.0418 11.0625 50.2868C5.19809 45.7839 1.61252 39.849 0.36952 32.5458C0.130482 31.1456 0.0667384 29.6977 0.00299493 28.2816C-0.0448127 27.2792 0.481071 26.77 1.48503 26.7541C4.36942 26.7382 7.25381 26.7382 10.1382 26.7541C11.6043 26.77 12.6083 27.677 12.7517 29.1408C12.9429 30.9547 13.3413 32.689 14.0903 34.3597C14.4728 35.203 14.2178 35.8235 13.3891 36.2213C12.3214 36.7464 11.2378 37.2396 10.1063 37.7647ZM26.6637 45.9112C24.9426 45.5293 23.2694 45.1634 21.5642 44.7974C21.0861 45.8316 20.5921 46.8977 20.0822 47.9797C19.6519 48.9025 18.9985 49.1253 18.0902 48.6798C13.2935 46.3249 9.72387 42.7767 7.34943 37.9874C6.85542 36.985 7.07852 36.3804 8.11435 35.8872C9.16612 35.3939 10.2179 34.9007 11.2059 34.4392C10.8234 32.7049 10.4569 31.0342 10.0745 29.3795C7.58847 29.3795 5.08653 29.3795 2.56867 29.3795C3.28578 43.8268 15.7317 53.3099 26.6478 53.3417C26.6637 50.8278 26.6637 48.3456 26.6637 45.9112Z" fill="#1FC700"/>
<path d="M21.6427 33.1354C22.7423 33.1354 23.7782 33.1354 24.8299 33.1354C25.4674 33.1354 26.1048 33.1195 26.7422 33.1513C27.4434 33.1832 27.9533 33.6923 27.9693 34.3606C27.9852 35.0448 27.4753 35.6494 26.7582 35.6494C24.5909 35.6812 22.4236 35.6653 20.2563 35.6494C19.587 35.6494 19.093 35.1402 19.0771 34.4561C19.0452 33.024 18.9974 31.592 19.1089 30.1759C19.2842 28.203 20.83 26.8505 22.8379 26.7709C23.2682 26.755 23.7144 26.7709 24.1447 26.755C24.8618 26.7232 25.3239 26.2936 25.4195 25.5776C25.4355 25.498 25.4355 25.4185 25.4355 25.3389C25.5152 23.2546 25.2283 22.9363 23.1407 22.9363C22.2483 22.9363 21.3559 22.9523 20.4635 22.9363C19.6189 22.9204 19.0452 22.3795 19.0611 21.6475C19.0771 20.9156 19.6348 20.4224 20.4635 20.4065C21.7224 20.3906 22.9654 20.3906 24.2244 20.4065C26.2801 20.4383 27.9215 22.0771 27.9693 24.1297C27.9852 24.782 28.0171 25.4503 27.9055 26.0868C27.6028 27.9961 26.0889 29.2372 24.1128 29.3008C23.6507 29.3167 23.2045 29.2849 22.7423 29.3167C22.1686 29.3645 21.6906 29.7622 21.6587 30.3191C21.6109 31.242 21.6427 32.1648 21.6427 33.1354Z" fill="#1FC700"/>
<path d="M36.8941 29.3162C36.1451 29.3162 35.4758 29.3162 34.8065 29.3162C33.8504 29.3162 32.8942 29.3321 31.9381 29.3162C31.0297 29.3003 30.5198 28.8071 30.5198 27.9161C30.5038 25.8794 30.5038 23.8269 30.5198 21.7902C30.5198 20.9629 31.0616 20.4219 31.7946 20.4219C32.5277 20.4219 33.0536 20.9629 33.0695 21.7902C33.0854 23.1745 33.0695 24.5747 33.0854 25.959C33.0854 26.1976 33.0854 26.4363 33.0854 26.7227C34.3603 26.7227 35.5874 26.7227 36.91 26.7227C36.91 26.5 36.91 26.2931 36.91 26.0704C36.91 24.6224 36.8941 23.1745 36.926 21.7266C36.9419 20.9629 37.4837 20.4219 38.1849 20.4219C38.8861 20.4219 39.4438 20.9788 39.4438 21.7266C39.4598 25.9271 39.4598 30.1436 39.4438 34.3442C39.4438 35.1079 38.8861 35.6489 38.1849 35.6648C37.4837 35.6648 36.926 35.1397 36.926 34.3601C36.91 32.9122 36.926 31.4642 36.91 30.0163C36.8941 29.8095 36.8941 29.5867 36.8941 29.3162Z" fill="#1FC700"/>
</svg>
