<svg width="149" height="42" viewBox="0 0 149 42" fill="none" xmlns="http://www.w3.org/2000/svg">
<rect x="1" y="1" width="147" height="40" rx="13" stroke="#1FC700" stroke-width="2"/>
<path d="M25.705 24.2388C25.9575 24.2388 26.1834 24.2299 26.3783 24.2122C26.5776 24.1945 26.7592 24.1746 26.9187 24.1502L28.0083 19.6483H30.914L29.346 26.1264C28.9961 26.2638 28.4911 26.3967 27.8311 26.5252C27.1756 26.6537 26.3362 26.7201 25.3152 26.7201C24.4471 26.7201 23.6786 26.5917 23.012 26.3391C22.3431 26.0865 21.785 25.7232 21.3377 25.2491C20.8947 24.7772 20.5603 24.2078 20.3366 23.5387C20.1107 22.8652 20 22.1031 20 21.2523C20 20.2842 20.1705 19.3204 20.5138 18.3633C20.8549 17.4062 21.3598 16.5533 22.0287 15.8022C22.7019 15.0468 23.5346 14.4331 24.5268 13.959C25.5234 13.4871 26.6706 13.25 27.964 13.25C28.5598 13.25 29.191 13.3386 29.8598 13.5159C30.5264 13.6887 31.1266 13.9479 31.6581 14.2957L30.6128 16.5555C30.1809 16.2786 29.718 16.0725 29.222 15.9352C28.7303 15.8 28.2497 15.7313 27.778 15.7313C27.0206 15.7313 26.3473 15.8776 25.7582 16.1656C25.1669 16.4492 24.6641 16.8369 24.2522 17.3265C23.8447 17.8183 23.5346 18.3877 23.322 19.0368C23.1094 19.6816 23.0031 20.3639 23.0031 21.084C23.0031 22.1828 23.229 22.9848 23.6852 23.4855C24.1392 23.9885 24.8125 24.2388 25.705 24.2388Z" fill="#F8F8F8"/>
<path d="M41.0435 22.244C40.8664 22.953 40.8132 23.6664 40.8841 24.3798C40.9594 25.0954 41.1055 25.7334 41.3182 26.2939L38.8377 26.6484C38.7668 26.5 38.6982 26.3604 38.634 26.223C38.5675 26.0812 38.5055 25.9262 38.4479 25.7534C38.098 26.0369 37.7126 26.274 37.2874 26.4623C36.8666 26.644 36.3949 26.737 35.87 26.737C35.2499 26.737 34.7184 26.6307 34.2754 26.418C33.8325 26.2009 33.4715 25.9084 33.1947 25.5407C32.9156 25.1751 32.7163 24.7475 32.5923 24.2557C32.4683 23.7594 32.4062 23.2321 32.4062 22.6694C32.4062 21.8142 32.5568 21.0078 32.858 20.2501C33.1637 19.488 33.5867 18.8233 34.1248 18.2562C34.6674 17.689 35.3053 17.2459 36.0383 16.9269C36.7758 16.6034 37.5731 16.4395 38.4302 16.4395C38.5409 16.4395 38.7358 16.4461 39.0149 16.4572C39.2984 16.4705 39.6195 16.4993 39.9805 16.5458C40.3393 16.5879 40.718 16.6588 41.1144 16.7585C41.5086 16.8604 41.8895 16.9955 42.2572 17.1661L41.0435 22.244ZM39.1035 18.8056C38.9374 18.7834 38.789 18.7657 38.6605 18.7524C38.5299 18.7413 38.3704 18.7347 38.1822 18.7347C37.7614 18.7347 37.3694 18.841 37.0039 19.0537C36.6363 19.2664 36.3152 19.5456 36.0383 19.8867C35.7659 20.2235 35.5511 20.6179 35.3916 21.0654C35.2366 21.5151 35.1613 21.9826 35.1613 22.4656C35.1613 23.0638 35.261 23.5357 35.4625 23.8835C35.6618 24.2335 36.0295 24.4063 36.561 24.4063C36.8489 24.4063 37.1102 24.351 37.3406 24.238C37.5709 24.1272 37.8145 23.9411 38.0759 23.6797C38.098 23.3673 38.1379 23.0416 38.191 22.7048C38.2486 22.3637 38.3106 22.0468 38.377 21.7566L39.1035 18.8056Z" fill="#F8F8F8"/>
<path d="M46.8526 26.7374C46.2325 26.7374 45.7009 26.6333 45.258 26.4272C44.8195 26.2146 44.4607 25.9265 44.1772 25.5588C43.8982 25.1932 43.6944 24.7656 43.566 24.2738C43.4353 23.7775 43.3711 23.2502 43.3711 22.6875C43.3711 21.8434 43.5217 21.0458 43.8229 20.2948C44.1285 19.5393 44.5493 18.8835 45.0808 18.3274C45.6168 17.7669 46.2524 17.3238 46.9855 16.9981C47.7163 16.6747 48.5202 16.5107 49.395 16.5107C49.6187 16.5107 49.8247 16.5262 50.0152 16.555C50.21 16.5794 50.4072 16.6149 50.6087 16.6614L51.6097 12.4431L54.5065 12L52.0438 22.2444C51.8666 22.9534 51.8157 23.6667 51.8932 24.3801C51.9685 25.0957 52.1102 25.7338 52.3184 26.2943L49.838 26.6488C49.7671 26.5004 49.6985 26.3608 49.6342 26.2234C49.5744 26.0816 49.5124 25.9265 49.4482 25.7537C49.0983 26.0373 48.7085 26.2744 48.2788 26.4627C47.8536 26.6444 47.3775 26.7374 46.8526 26.7374ZM50.0683 18.8857C49.9908 18.8747 49.9221 18.8636 49.8646 18.8503C49.8114 18.8392 49.7538 18.8303 49.6962 18.8237C49.6431 18.8126 49.5722 18.806 49.4836 18.806C49.3995 18.806 49.2887 18.806 49.147 18.806C48.7151 18.806 48.3098 18.9101 47.9333 19.1161C47.5613 19.3244 47.2424 19.6013 46.9766 19.9492C46.7108 20.2992 46.5004 20.6936 46.3476 21.1367C46.1992 21.5753 46.1262 22.0229 46.1262 22.4837C46.1262 23.0819 46.228 23.5515 46.4362 23.8927C46.6422 24.2361 47.012 24.4067 47.5436 24.4067C47.8315 24.4067 48.095 24.3513 48.332 24.2383C48.5668 24.1276 48.8148 23.9415 49.0761 23.68C49.0983 23.3677 49.1381 23.042 49.1913 22.7052C49.2489 22.364 49.3109 22.0472 49.3773 21.757L50.0683 18.8857Z" fill="#F8F8F8"/>
<path d="M62.286 25.2485C62.0955 26.0594 61.8475 26.7573 61.5419 27.3488C61.2407 27.9381 60.8619 28.4299 60.4079 28.8199C59.9517 29.2142 59.4069 29.5067 58.7691 29.6972C58.1357 29.8922 57.3982 29.9897 56.5544 29.9897C55.7682 29.9897 55.106 29.9143 54.57 29.7681C54.0385 29.6263 53.5535 29.4513 53.1172 29.2452L54.0562 27.0386C54.4394 27.2159 54.838 27.3665 55.2521 27.4906C55.6707 27.6147 56.1845 27.6767 56.7936 27.6767C57.5909 27.6767 58.1888 27.4994 58.5919 27.145C58.9994 26.7905 59.2652 26.3341 59.3892 25.7714L59.4689 25.4169C59.2142 25.541 58.9485 25.6429 58.6716 25.7182C58.3926 25.7891 58.098 25.8245 57.7857 25.8245C57.2011 25.8245 56.6961 25.7359 56.2709 25.5587C55.8501 25.377 55.5046 25.1244 55.2344 24.8054C54.9687 24.482 54.7693 24.0965 54.6409 23.6534C54.5102 23.2103 54.446 22.7295 54.446 22.2089C54.446 21.2651 54.6187 20.4276 54.9687 19.7009C55.3164 18.9698 55.7792 18.3606 56.3595 17.8754C56.9375 17.3924 57.6019 17.0246 58.3527 16.7765C59.1079 16.5284 59.8963 16.4043 60.718 16.4043C61.3137 16.4043 61.9051 16.4663 62.4897 16.5904C63.0744 16.7145 63.6436 16.9072 64.1995 17.1664L62.286 25.2485ZM61.0546 18.8059C60.842 18.7594 60.5785 18.735 60.2662 18.735C59.7923 18.735 59.3715 18.8214 58.9994 18.992C58.6273 19.1581 58.304 19.3863 58.0338 19.6744C57.768 19.9579 57.5643 20.3036 57.4225 20.7112C57.2808 21.1144 57.2099 21.5442 57.2099 22.005C57.2099 22.2244 57.2276 22.4304 57.2631 22.6254C57.2985 22.8203 57.365 22.9887 57.4668 23.1305C57.5665 23.2723 57.7016 23.3875 57.8743 23.4761C58.0515 23.5647 58.2685 23.6091 58.5299 23.6091C58.7071 23.6091 58.9396 23.5803 59.2297 23.5204C59.5243 23.4562 59.79 23.3122 60.027 23.0862L61.0546 18.8059Z" fill="#F8F8F8"/>
<path d="M64.9492 22.6342C64.9492 21.8367 65.0865 21.0657 65.3656 20.3213C65.6424 19.5769 66.0344 18.9167 66.5438 18.3362C67.0576 17.758 67.6777 17.2905 68.4041 16.936C69.1305 16.5815 69.9367 16.4043 70.8226 16.4043C71.2589 16.4043 71.6642 16.4663 72.0362 16.5904C72.4083 16.7145 72.7316 16.8961 73.0107 17.131C73.2942 17.368 73.5112 17.6583 73.6662 17.9994C73.819 18.3428 73.8966 18.7306 73.8966 19.1604C73.8966 19.8582 73.7393 20.452 73.427 20.9416C73.1192 21.4268 72.6873 21.8234 72.1337 22.1291C71.5844 22.4304 70.9289 22.6498 70.167 22.7849C69.4096 22.9223 68.5835 22.9887 67.6866 22.9887C67.7752 23.516 67.9634 23.8882 68.2535 24.1053C68.5481 24.318 69.011 24.4244 69.6444 24.4244C70.0452 24.4244 70.4505 24.3933 70.858 24.3269C71.2699 24.256 71.6575 24.1541 72.0185 24.0167L72.2223 26.1967C71.8723 26.3385 71.4272 26.4626 70.8846 26.5689C70.3464 26.6797 69.7595 26.7373 69.1217 26.7373C68.3532 26.7373 67.7043 26.631 67.1728 26.4183C66.6457 26.2012 66.2182 25.9043 65.8882 25.5321C65.556 25.1555 65.3169 24.7168 65.1707 24.2205C65.0223 23.7243 64.9492 23.197 64.9492 22.6342ZM70.3708 18.6021C69.7374 18.6021 69.1837 18.8303 68.7053 19.2844C68.227 19.7408 67.9125 20.339 67.7663 21.0834C68.5326 21.0612 69.1527 20.9948 69.6266 20.8884C70.0984 20.7821 70.4638 20.6558 70.7251 20.5074C70.9909 20.3612 71.1636 20.2016 71.2478 20.0288C71.3364 19.8516 71.3807 19.6744 71.3807 19.4971C71.3807 18.9011 71.044 18.6021 70.3708 18.6021Z" fill="#F8F8F8"/>
<path d="M76.9433 14.2165L79.8313 13.7734L79.1226 16.6624H82.2231L81.6562 18.9399H78.5822L77.7583 22.3784C77.6874 22.662 77.6387 22.9278 77.6166 23.176C77.5989 23.4241 77.6299 23.6412 77.714 23.8229C77.796 24.0001 77.9355 24.1397 78.1304 24.2394C78.3297 24.3413 78.6043 24.39 78.9542 24.39C79.2554 24.39 79.5434 24.3635 79.8224 24.3103C80.0992 24.2527 80.3827 24.1729 80.6728 24.071L80.8766 26.1979C80.5045 26.3397 80.0992 26.4593 79.6629 26.5524C79.2244 26.6521 78.7084 26.703 78.1127 26.703C77.2556 26.703 76.5912 26.5745 76.1194 26.3219C75.6455 26.0694 75.3089 25.7193 75.1095 25.2762C74.908 24.8331 74.8194 24.328 74.8438 23.7608C74.8726 23.1892 74.9612 22.5822 75.1095 21.9441L76.9433 14.2165Z" fill="#F8F8F8"/>
<path d="M98.9846 13.5508L98.3911 15.9878H94.5996L92.0837 26.4804H89.178L91.6939 15.9878H87.9023L88.5047 13.5508H98.9846Z" fill="#F8F8F8"/>
<path d="M105.081 19.0536C104.833 18.9893 104.588 18.9295 104.346 18.8763C104.103 18.8187 103.746 18.7877 103.274 18.7877C103.097 18.7877 102.902 18.8054 102.69 18.8409C102.481 18.8719 102.309 18.9029 102.167 18.9384L100.36 26.4799H97.5781L99.8194 17.1837C100.355 17.0131 100.956 16.8514 101.618 16.6963C102.284 16.5368 103.035 16.457 103.868 16.457C104.18 16.457 104.526 16.488 104.904 16.5457C105.281 16.5988 105.615 16.6874 105.905 16.8115L105.081 19.0536Z" fill="#F8F8F8"/>
<path d="M106.09 22.6342C106.09 21.8367 106.227 21.0657 106.506 20.3213C106.783 19.5769 107.175 18.9167 107.684 18.3362C108.198 17.758 108.818 17.2905 109.545 16.936C110.271 16.5815 111.077 16.4043 111.963 16.4043C112.399 16.4043 112.805 16.4663 113.177 16.5904C113.549 16.7145 113.872 16.8961 114.151 17.131C114.435 17.368 114.652 17.6583 114.807 17.9994C114.96 18.3428 115.037 18.7306 115.037 19.1604C115.037 19.8582 114.88 20.452 114.568 20.9416C114.26 21.4268 113.828 21.8234 113.274 22.1291C112.725 22.4304 112.069 22.6498 111.308 22.7849C110.55 22.9223 109.724 22.9887 108.827 22.9887C108.916 23.516 109.104 23.8882 109.394 24.1053C109.689 24.318 110.152 24.4244 110.785 24.4244C111.186 24.4244 111.591 24.3933 111.999 24.3269C112.411 24.256 112.798 24.1541 113.159 24.0167L113.363 26.1967C113.013 26.3385 112.568 26.4626 112.025 26.5689C111.487 26.6797 110.9 26.7373 110.262 26.7373C109.494 26.7373 108.845 26.631 108.313 26.4183C107.786 26.2012 107.359 25.9043 107.029 25.5321C106.697 25.1555 106.457 24.7168 106.311 24.2205C106.163 23.7243 106.09 23.197 106.09 22.6342ZM111.511 18.6021C110.878 18.6021 110.324 18.8303 109.846 19.2844C109.368 19.7408 109.053 20.339 108.907 21.0834C109.673 21.0612 110.293 20.9948 110.767 20.8884C111.239 20.7821 111.604 20.6558 111.866 20.5074C112.132 20.3612 112.304 20.2016 112.388 20.0288C112.477 19.8516 112.521 19.6744 112.521 19.4971C112.521 18.9011 112.185 18.6021 111.511 18.6021Z" fill="#F8F8F8"/>
<path d="M115.977 22.6342C115.977 21.8367 116.114 21.0657 116.393 20.3213C116.67 19.5769 117.062 18.9167 117.571 18.3362C118.085 17.758 118.705 17.2905 119.431 16.936C120.158 16.5815 120.964 16.4043 121.85 16.4043C122.286 16.4043 122.691 16.4663 123.064 16.5904C123.436 16.7145 123.759 16.8961 124.038 17.131C124.322 17.368 124.539 17.6583 124.694 17.9994C124.846 18.3428 124.924 18.7306 124.924 19.1604C124.924 19.8582 124.767 20.452 124.454 20.9416C124.147 21.4268 123.715 21.8234 123.161 22.1291C122.612 22.4304 121.956 22.6498 121.194 22.7849C120.437 22.9223 119.611 22.9887 118.714 22.9887C118.803 23.516 118.991 23.8882 119.281 24.1053C119.575 24.318 120.038 24.4244 120.672 24.4244C121.073 24.4244 121.478 24.3933 121.885 24.3269C122.297 24.256 122.685 24.1541 123.046 24.0167L123.25 26.1967C122.9 26.3385 122.455 26.4626 121.912 26.5689C121.374 26.6797 120.787 26.7373 120.149 26.7373C119.381 26.7373 118.732 26.631 118.2 26.4183C117.673 26.2012 117.246 25.9043 116.916 25.5321C116.583 25.1555 116.344 24.7168 116.198 24.2205C116.05 23.7243 115.977 23.197 115.977 22.6342ZM121.398 18.6021C120.765 18.6021 120.211 18.8303 119.733 19.2844C119.254 19.7408 118.94 20.339 118.794 21.0834C119.56 21.0612 120.18 20.9948 120.654 20.8884C121.126 20.7821 121.491 20.6558 121.752 20.5074C122.018 20.3612 122.191 20.2016 122.275 20.0288C122.364 19.8516 122.408 19.6744 122.408 19.4971C122.408 18.9011 122.071 18.6021 121.398 18.6021Z" fill="#F8F8F8"/>
<path d="M126.979 23.291C127.415 23.291 127.778 23.4129 128.068 23.6544C128.363 23.8981 128.511 24.2791 128.511 24.7975C128.511 25.0878 128.458 25.3514 128.352 25.5863C128.245 25.8233 128.104 26.0271 127.926 26.1977C127.754 26.3639 127.557 26.4902 127.333 26.5788C127.107 26.6718 126.877 26.7206 126.642 26.7206C126.203 26.7206 125.838 26.5987 125.543 26.3572C125.253 26.1158 125.109 25.7347 125.109 25.2141C125.109 24.926 125.163 24.6624 125.269 24.4253C125.375 24.1905 125.512 23.9889 125.685 23.8227C125.862 23.6521 126.062 23.5214 126.288 23.4328C126.511 23.3398 126.742 23.291 126.979 23.291Z" fill="#F8F8F8"/>
</svg>
