<svg width="20" height="20" viewBox="0 0 20 20" fill="none" xmlns="http://www.w3.org/2000/svg">
<path d="M7.54474 18.9994C7.99661 18.9994 8.36293 18.6157 8.36293 18.1423C8.36293 17.6689 7.99661 17.2852 7.54474 17.2852C7.09287 17.2852 6.72656 17.6689 6.72656 18.1423C6.72656 18.6157 7.09287 18.9994 7.54474 18.9994Z" fill="#1FC700" stroke="#1FC700" stroke-width="1.5" stroke-linecap="round" stroke-linejoin="round"/>
<path d="M16.5447 18.9994C16.9966 18.9994 17.3629 18.6157 17.3629 18.1423C17.3629 17.6689 16.9966 17.2852 16.5447 17.2852C16.0929 17.2852 15.7266 17.6689 15.7266 18.1423C15.7266 18.6157 16.0929 18.9994 16.5447 18.9994Z" fill="#1FC700" stroke="#1FC700" stroke-width="1.5" stroke-linecap="round" stroke-linejoin="round"/>
<path d="M1 1H4.27273L6.46545 12.4771C6.54027 12.8718 6.7452 13.2263 7.04436 13.4785C7.34351 13.7308 7.71784 13.8649 8.10182 13.8571H16.0545C16.4385 13.8649 16.8129 13.7308 17.112 13.4785C17.4112 13.2263 17.6161 12.8718 17.6909 12.4771L19 5.28571H5.09091" stroke="#1FC700" stroke-width="1.5" stroke-linecap="round" stroke-linejoin="round"/>
</svg>
