<svg width="18" height="18" viewBox="0 0 18 18" fill="none" xmlns="http://www.w3.org/2000/svg">
<path d="M6.81712 17.0004C7.21878 17.0004 7.54439 16.6593 7.54439 16.2385C7.54439 15.8177 7.21878 15.4766 6.81712 15.4766C6.41545 15.4766 6.08984 15.8177 6.08984 16.2385C6.08984 16.6593 6.41545 17.0004 6.81712 17.0004Z" fill="#1D1D1D" stroke="#1D1D1D" stroke-width="2" stroke-linecap="round" stroke-linejoin="round"/>
<path d="M14.8171 17.0004C15.2188 17.0004 15.5444 16.6593 15.5444 16.2385C15.5444 15.8177 15.2188 15.4766 14.8171 15.4766C14.4155 15.4766 14.0898 15.8177 14.0898 16.2385C14.0898 16.6593 14.4155 17.0004 14.8171 17.0004Z" fill="#1D1D1D" stroke="#1D1D1D" stroke-width="2" stroke-linecap="round" stroke-linejoin="round"/>
<path d="M1 1H3.90909L5.85818 11.2019C5.92469 11.5527 6.10684 11.8678 6.37276 12.092C6.63868 12.3163 6.97142 12.4354 7.31273 12.4286H14.3818C14.7231 12.4354 15.0559 12.3163 15.3218 12.092C15.5877 11.8678 15.7699 11.5527 15.8364 11.2019L17 4.80952H4.63636" stroke="#1D1D1D" stroke-width="2" stroke-linecap="round" stroke-linejoin="round"/>
</svg>
