<svg width="14" height="14" viewBox="0 0 14 14" fill="none" xmlns="http://www.w3.org/2000/svg">
<path d="M11.7041 14C11.5304 14 11.3581 14 11.1844 14C11.1628 13.9933 11.1426 13.9825 11.1197 13.9798C10.4007 13.8856 9.82572 13.5463 9.37732 12.9794C9.345 12.939 9.27229 12.9094 9.21843 12.9094C8.62191 12.904 8.02404 12.9067 7.42753 12.9067C7.204 12.9067 6.98048 12.9081 6.75695 12.9054C6.64249 12.904 6.53612 12.8596 6.50919 12.7492C6.48764 12.6617 6.49033 12.5378 6.54016 12.4732C6.58998 12.4072 6.70847 12.3641 6.79869 12.3628C7.49081 12.3547 8.18428 12.3587 8.87641 12.3574C8.92354 12.3574 8.97066 12.3533 9.00837 12.3506C8.95181 12.0921 8.89795 11.8457 8.84274 11.5913C8.79023 11.5913 8.73502 11.5913 8.68116 11.5913C6.35164 11.5913 4.02347 11.5913 1.69395 11.5913C1.38694 11.5913 1.30884 11.5118 1.30884 11.2008C1.30884 9.12329 1.30884 7.04443 1.30884 4.96692C1.30884 4.67609 1.39232 4.59127 1.68048 4.59127C5.00779 4.59127 8.3351 4.59127 11.6611 4.59127C11.9425 4.59127 12.0287 4.67744 12.0287 4.95884C12.0287 6.22581 12.0287 7.49279 12.0287 8.75976C12.0287 8.81362 12.0287 8.86747 12.0287 8.90517C12.2926 9.01558 12.5417 9.11925 12.7841 9.22023C12.7841 7.42547 12.7841 5.628 12.7841 3.8265C12.7141 3.8265 12.6548 3.8265 12.5956 3.8265C9.25882 3.8265 5.92344 3.8265 2.58671 3.8265C2.5315 3.8265 2.47629 3.8292 2.42243 3.82247C2.28374 3.80362 2.18275 3.68648 2.18409 3.55049C2.18544 3.4145 2.28778 3.30006 2.42782 3.28255C2.47764 3.27717 2.52746 3.27986 2.57863 3.27986C5.92344 3.27986 9.2696 3.27986 12.6144 3.27986C12.6723 3.27986 12.7289 3.27986 12.7948 3.27986C12.7948 2.8342 12.7962 2.40604 12.7948 1.97788C12.7948 1.74495 12.6858 1.63993 12.4488 1.63858C11.8469 1.63724 11.245 1.63858 10.6444 1.63858C10.6094 1.63858 10.5744 1.63858 10.5259 1.63858C10.5259 1.73687 10.5273 1.82304 10.5259 1.90787C10.5178 2.37373 10.1556 2.73456 9.69914 2.73187C9.2494 2.72918 8.89256 2.36834 8.88583 1.90921C8.88449 1.82035 8.88583 1.73149 8.88583 1.64666C7.3979 1.64666 5.93152 1.64666 4.45436 1.64666C4.45436 1.74899 4.45706 1.84324 4.45436 1.93883C4.43955 2.37911 4.07733 2.73053 3.6397 2.73322C3.19535 2.73591 2.82909 2.38046 2.81562 1.9348C2.81293 1.84055 2.81562 1.7463 2.81562 1.63993C2.75233 1.63993 2.70251 1.63993 2.65404 1.63993C2.08445 1.63993 1.51486 1.63993 0.945273 1.63993C0.632875 1.63993 0.54535 1.7261 0.54535 2.03578C0.54535 5.34391 0.54535 8.65205 0.54535 11.9615C0.54535 12.2726 0.631528 12.3601 0.94258 12.3601C2.13696 12.3601 3.33135 12.3601 4.52438 12.3601C4.70886 12.3601 4.83543 12.4759 4.83409 12.6347C4.83274 12.7882 4.70886 12.9054 4.53515 12.9054C3.29499 12.9067 2.05617 12.9081 0.816005 12.904C0.460517 12.9027 0.158892 12.6724 0.0430894 12.3345C0.0296239 12.2968 0.0134654 12.2591 0 12.2227C0 8.74091 0 5.25909 0 1.77726C0.00673271 1.76649 0.0175051 1.75572 0.0215447 1.7436C0.156199 1.30602 0.440319 1.09329 0.896797 1.09329C1.43811 1.09329 1.97942 1.09329 2.52073 1.09329C2.61499 1.09329 2.70924 1.09329 2.81562 1.09329C2.81562 1.0125 2.81697 0.945182 2.81562 0.879207C2.80754 0.651664 2.87487 0.449702 3.02299 0.276015C3.14956 0.127909 3.32057 0.0578957 3.49966 0C3.59123 0 3.68145 0 3.77301 0C3.78917 0.00807848 3.80533 0.0175033 3.82149 0.022889C4.2268 0.13868 4.45302 0.433545 4.45571 0.852279C4.45571 0.929025 4.45571 1.00442 4.45571 1.08656C5.9369 1.08656 7.40464 1.08656 8.88583 1.08656C8.88583 1.00442 8.88718 0.927678 8.88583 0.852279C8.88179 0.612618 8.95181 0.393153 9.13494 0.241008C9.26017 0.137334 9.4231 0.0780919 9.56988 0C9.66144 0 9.75166 0 9.84322 0C9.85938 0.00807848 9.87554 0.0175033 9.8917 0.022889C10.297 0.13868 10.5232 0.433545 10.5259 0.853626C10.5259 0.930371 10.5259 1.00577 10.5259 1.09463C10.5879 1.09463 10.6377 1.09463 10.6862 1.09463C11.2692 1.09463 11.8523 1.09463 12.4353 1.09463C12.504 1.09463 12.5727 1.09463 12.64 1.1054C13.0709 1.1808 13.3429 1.51875 13.3429 1.97923C13.3429 4.51183 13.3442 7.04308 13.3415 9.57569C13.3415 9.67263 13.3658 9.74534 13.4277 9.82073C13.6795 10.1237 13.8425 10.4711 13.934 10.8534C13.9583 10.9544 13.9771 11.0554 14 11.1564C14 11.3381 14 11.5213 14 11.703C13.9919 11.7286 13.9798 11.7528 13.9744 11.7784C13.8021 12.8044 13.2257 13.5005 12.2522 13.8613C12.0771 13.9259 11.8873 13.9542 11.7041 14ZM9.40694 11.4297C9.40694 12.5459 10.3172 13.4534 11.4348 13.452C12.5444 13.4507 13.452 12.5445 13.4546 11.4337C13.4573 10.3162 12.5498 9.40604 11.4335 9.40469C10.3159 9.40469 9.4056 10.3135 9.40694 11.4297ZM3.90228 5.1433C3.90228 5.68725 3.90228 6.21639 3.90228 6.74418C4.39915 6.74418 4.88526 6.74418 5.37136 6.74418C5.37136 6.20562 5.37136 5.67513 5.37136 5.1433C4.87852 5.1433 4.39511 5.1433 3.90228 5.1433ZM7.96749 6.74284C8.46302 6.74284 8.95181 6.74284 9.44465 6.74284C9.44465 6.20696 9.44465 5.67917 9.44465 5.14868C8.94777 5.14868 8.45898 5.14868 7.96749 5.14868C7.96749 5.6859 7.96749 6.21235 7.96749 6.74284ZM5.37674 9.44105C4.87718 9.44105 4.39107 9.44105 3.90228 9.44105C3.90228 9.97961 3.90228 10.5088 3.90228 11.0379C4.39915 11.0379 4.88526 11.0379 5.37674 11.0379C5.37674 10.5034 5.37674 9.97692 5.37674 9.44105ZM5.3727 8.88228C5.3727 8.34776 5.3727 7.82804 5.3727 7.30833C4.87583 7.30833 4.39107 7.30833 3.90363 7.30833C3.90363 7.83747 3.90363 8.35853 3.90363 8.88228C4.39646 8.88228 4.87852 8.88228 5.3727 8.88228ZM9.44061 8.88228C9.44061 8.3491 9.44061 7.82804 9.44061 7.30833C8.94373 7.30833 8.45763 7.30833 7.97153 7.30833C7.97153 7.83747 7.97153 8.35853 7.97153 8.88228C8.46437 8.88228 8.94643 8.88228 9.44061 8.88228ZM3.33269 6.74822C3.33269 6.20696 3.33269 5.67648 3.33269 5.14734C2.83716 5.14734 2.35241 5.14734 1.86765 5.14734C1.86765 5.6859 1.86765 6.21504 1.86765 6.74822C2.35914 6.74822 2.83986 6.74822 3.33269 6.74822ZM5.93421 6.74418C6.43378 6.74418 6.91853 6.74418 7.40329 6.74418C7.40329 6.20562 7.40329 5.67648 7.40329 5.14868C6.90911 5.14868 6.42435 5.14868 5.93421 5.14868C5.93421 5.68321 5.93421 6.20966 5.93421 6.74418ZM10.0062 6.74284C10.5017 6.74284 10.9891 6.74284 11.4739 6.74284C11.4739 6.20292 11.4739 5.67378 11.4739 5.14868C10.977 5.14868 10.4923 5.14868 10.0062 5.14868C10.0062 5.68455 10.0062 6.21235 10.0062 6.74284ZM3.33673 9.44239C2.8412 9.44239 2.35376 9.44239 1.869 9.44239C1.869 9.9823 1.869 10.5114 1.869 11.0365C2.36588 11.0365 2.85063 11.0365 3.33673 11.0365C3.33673 10.5007 3.33673 9.97423 3.33673 9.44239ZM7.40464 11.0419C7.40464 10.502 7.40464 9.97153 7.40464 9.44105C6.91045 9.44105 6.4257 9.44105 5.9396 9.44105C5.9396 9.97826 5.9396 10.5074 5.9396 11.0419C6.42974 11.0419 6.91045 11.0419 7.40464 11.0419ZM3.33269 8.88094C3.33269 8.34776 3.33269 7.82804 3.33269 7.30833C2.83716 7.30833 2.35241 7.30833 1.86765 7.30833C1.86765 7.83747 1.86765 8.35853 1.86765 8.88094C2.35914 8.88094 2.8412 8.88094 3.33269 8.88094ZM7.40329 8.88228C7.40329 8.3491 7.40329 7.82804 7.40329 7.30833C6.90911 7.30833 6.42435 7.30833 5.9396 7.30833C5.9396 7.83747 5.9396 8.35718 5.9396 8.88228C6.43109 8.88228 6.9118 8.88228 7.40329 8.88228ZM10.0062 8.86074C10.5044 8.86074 10.9918 8.86074 11.4766 8.86074C11.4766 8.32756 11.4766 7.81997 11.4766 7.30564C10.9837 7.30564 10.499 7.30564 10.0062 7.30564C10.0062 7.83074 10.0062 8.34776 10.0062 8.86074ZM7.97018 9.4397C7.97018 9.97961 7.97018 10.5088 7.97018 11.0419C8.27989 11.0419 8.57882 11.0419 8.88045 11.0419C8.89122 11.0029 8.90199 10.9692 8.90872 10.9342C8.97605 10.5707 9.11205 10.2314 9.34096 9.9446C9.46888 9.78304 9.45407 9.62281 9.4433 9.44105C8.95181 9.4397 8.46571 9.4397 7.97018 9.4397ZM3.36232 1.35449C3.36232 1.53626 3.35962 1.71802 3.36366 1.89979C3.3677 2.06674 3.47947 2.18253 3.63162 2.18523C3.78782 2.18792 3.90767 2.06809 3.90901 1.89575C3.91171 1.54164 3.91171 1.18754 3.90901 0.833429C3.90767 0.667821 3.79186 0.550683 3.64105 0.54799C3.48485 0.545297 3.3677 0.665128 3.36366 0.837469C3.35962 1.00846 3.36232 1.18215 3.36232 1.35449ZM9.98057 1.37334C9.98057 1.19561 9.98326 1.01923 9.98057 0.841508C9.97788 0.666474 9.86477 0.546644 9.70857 0.545297C9.55237 0.543951 9.43657 0.665128 9.43522 0.838815C9.43253 1.18888 9.43253 1.53895 9.43522 1.88767C9.43657 2.0627 9.55102 2.18253 9.70588 2.18388C9.86208 2.18523 9.97653 2.06405 9.97923 1.89036C9.98326 1.71937 9.98057 1.54703 9.98057 1.37334Z" fill="#AAAAAA"/>
<path d="M1.36849 3.82716C1.21767 3.82851 1.0911 3.7006 1.09379 3.55115C1.09649 3.40574 1.21767 3.28456 1.3631 3.28321C1.51391 3.28187 1.64049 3.40978 1.6378 3.55923C1.63645 3.70329 1.51391 3.82447 1.36849 3.82716Z" fill="#AAAAAA"/>
<path d="M5.92699 12.6383C5.92295 12.7837 5.79638 12.9062 5.65095 12.9049C5.49744 12.9035 5.3776 12.7756 5.38299 12.6194C5.38837 12.4713 5.51495 12.3542 5.66172 12.3596C5.80849 12.3663 5.93103 12.4942 5.92699 12.6383Z" fill="#AAAAAA"/>
<path d="M11.3596 11.6275C11.6518 11.3353 11.9103 11.0741 12.1742 10.8156C12.2213 10.7685 12.2779 10.72 12.3398 10.7012C12.4583 10.6648 12.5661 10.7012 12.6388 10.8075C12.7101 10.9139 12.7155 11.0324 12.628 11.1239C12.2725 11.4902 11.9116 11.851 11.5467 12.2065C11.4404 12.3088 11.3003 12.2994 11.1886 12.193C10.9906 12.0045 10.7967 11.8106 10.6095 11.6127C10.5018 11.4996 10.5085 11.3515 10.6095 11.2438C10.7132 11.1334 10.8721 11.1199 10.9893 11.229C11.1158 11.3501 11.2303 11.4861 11.3596 11.6275Z" fill="#AAAAAA"/>
</svg>
