<svg width="23" height="22" viewBox="0 0 23 22" fill="none" xmlns="http://www.w3.org/2000/svg">
<path d="M20.3807 2.76815C19.8676 2.20759 19.2583 1.76292 18.5878 1.45954C17.9172 1.15615 17.1985 1 16.4727 1C15.7468 1 15.0281 1.15615 14.3576 1.45954C13.687 1.76292 13.0778 2.20759 12.5646 2.76815L11.4997 3.93095L10.4348 2.76815C9.39834 1.6364 7.99258 1.00059 6.52679 1.00059C5.06099 1.00059 3.65523 1.6364 2.61876 2.76815C1.58229 3.89989 1 5.43487 1 7.03541C1 8.63594 1.58229 10.1709 2.61876 11.3027L3.68367 12.4655L11.4997 21L19.3158 12.4655L20.3807 11.3027C20.8941 10.7424 21.3013 10.0771 21.5791 9.34495C21.857 8.61276 22 7.82796 22 7.03541C22 6.24285 21.857 5.45806 21.5791 4.72587C21.3013 3.99368 20.8941 3.32844 20.3807 2.76815V2.76815Z" stroke="#1FC700" stroke-width="2" stroke-linecap="round" stroke-linejoin="round"/>
</svg>
