<svg width="17" height="17" viewBox="0 0 17 17" fill="none" xmlns="http://www.w3.org/2000/svg">
<path d="M8.49901 1.06011L10.8783 5.89129L10.9247 5.98558L11.0287 6.00081L16.3504 6.78047L12.4994 10.5399L12.4243 10.6133L12.442 10.7168L13.3508 16.0271L8.59227 13.5189L8.49901 13.4698L8.40576 13.5189L3.64736 16.0271L4.55602 10.7168L4.57373 10.6133L4.49859 10.5399L0.647724 6.78047L5.96935 6.00081L6.07334 5.98558L6.11978 5.89129L8.49901 1.06011Z" fill="#F7F7F7" stroke="#E9C81C" stroke-width="0.4"/>
<path d="M8.49901 0.607422L8.49937 7.28599L8.49901 13.6958L3.38182 16.3931L4.35888 10.6831L0.21875 6.64118L5.94035 5.80293L8.49901 0.607422Z" fill="#E9C81C"/>
</svg>
