<svg width="13" height="13" viewBox="0 0 13 13" fill="none" xmlns="http://www.w3.org/2000/svg">
<path fill-rule="evenodd" clip-rule="evenodd" d="M9.12961 0.400391H3.31143C1.71158 0.400391 0.402344 1.70904 0.402344 3.30948V9.12766C0.402344 10.7275 1.71158 12.0368 3.31143 12.0368H9.12961C10.7295 12.0368 12.0387 10.7275 12.0387 9.12766V3.30948C12.0387 1.70904 10.7295 0.400391 9.12961 0.400391ZM6.22114 8.641C4.88208 8.641 3.79684 7.55532 3.79684 6.21685C3.79684 4.8778 4.88208 3.79256 6.22114 3.79256C7.55961 3.79256 8.64543 4.8778 8.64543 6.21685C8.64543 7.55532 7.55961 8.641 6.22114 8.641ZM8.64211 3.06494C8.64211 3.46654 8.96734 3.79222 9.36938 3.79222C9.77141 3.79222 10.0967 3.46654 10.0967 3.06494C10.0967 2.66334 9.77141 2.33767 9.36938 2.33767C8.96734 2.33767 8.64211 2.66334 8.64211 3.06494Z" fill="#1D1D1D"/>
</svg>
