<svg width="25" height="25" viewBox="0 0 25 25" fill="none" xmlns="http://www.w3.org/2000/svg">
<path fill-rule="evenodd" clip-rule="evenodd" d="M18.75 0H6.25C2.81281 0 0 2.81156 0 6.25V18.75C0 22.1872 2.81281 25 6.25 25H18.75C22.1872 25 25 22.1872 25 18.75V6.25C25 2.81156 22.1872 0 18.75 0ZM12.5002 17.7078C9.62333 17.7078 7.29176 15.3753 7.29176 12.4997C7.29176 9.62284 9.62333 7.29128 12.5002 7.29128C15.3758 7.29128 17.7086 9.62284 17.7086 12.4997C17.7086 15.3753 15.3758 17.7078 12.5002 17.7078ZM17.7084 5.72936C17.7084 6.59217 18.4072 7.29186 19.2709 7.29186C20.1347 7.29186 20.8334 6.59217 20.8334 5.72936C20.8334 4.86655 20.1347 4.16686 19.2709 4.16686C18.4072 4.16686 17.7084 4.86655 17.7084 5.72936Z" fill="#1FC700"/>
</svg>
