<svg width="27" height="23" viewBox="0 0 27 23" fill="none" xmlns="http://www.w3.org/2000/svg">
<path d="M24.2261 5.98277C24.2439 6.22397 24.2439 6.46379 24.2439 6.70361C24.2439 14.0429 18.6755 22.5 8.49898 22.5C5.36373 22.5 2.45105 21.589 0 20.0067C0.445146 20.0577 0.873804 20.0756 1.33681 20.0756C3.92388 20.0756 6.30485 19.199 8.20771 17.7036C5.77453 17.6526 3.73565 16.0538 3.03221 13.8541C3.37431 13.9051 3.71779 13.9395 4.07775 13.9395C4.57373 13.9395 5.07246 13.8706 5.53547 13.7507C2.99786 13.2352 1.09775 11.0011 1.09775 8.30241V8.23349C1.83554 8.6456 2.69148 8.90333 3.59826 8.93779C2.10757 7.94268 1.13072 6.24051 1.13072 4.31506C1.13072 3.28411 1.40413 2.33862 1.88363 1.51441C4.60808 4.88153 8.70369 7.08263 13.2953 7.32383C13.2101 6.91035 13.1579 6.48171 13.1579 6.05168C13.1579 2.99192 15.6254 0.5 18.692 0.5C20.2857 0.5 21.7242 1.16984 22.7354 2.25316C23.9856 2.01197 25.1837 1.54749 26.2471 0.912104C25.8363 2.20079 24.9611 3.28411 23.8139 3.97187C24.9281 3.85058 26.008 3.54185 27 3.11183C26.2471 4.21169 25.306 5.19164 24.2261 5.98277Z" fill="#1FC700"/>
</svg>
