<svg width="14" height="12" viewBox="0 0 14 12" fill="none" xmlns="http://www.w3.org/2000/svg">
<path d="M12.1991 3.08162C12.2078 3.20919 12.2078 3.33604 12.2078 3.46289C12.2078 7.34483 9.50792 11.818 4.57384 11.818C3.05372 11.818 1.64151 11.3361 0.453125 10.4992C0.668953 10.5262 0.876788 10.5357 1.10128 10.5357C2.35561 10.5357 3.51002 10.072 4.43262 9.28107C3.2529 9.25409 2.26435 8.40845 1.92329 7.24496C2.08916 7.27193 2.25569 7.29016 2.43022 7.29016C2.67069 7.29016 2.9125 7.25371 3.13699 7.19028C1.90663 6.91764 0.985368 5.73592 0.985368 4.30853V4.27208C1.34308 4.49005 1.75809 4.62638 2.19774 4.6446C1.47498 4.11826 1.00136 3.21794 1.00136 2.19952C1.00136 1.65423 1.13392 1.15413 1.3664 0.718188C2.68735 2.49914 4.6731 3.66336 6.89933 3.79094C6.85803 3.57224 6.83271 3.34552 6.83271 3.11807C6.83271 1.49968 8.02909 0.181641 9.51591 0.181641C10.2886 0.181641 10.9861 0.535936 11.4763 1.10893C12.0825 0.981358 12.6634 0.735684 13.179 0.399613C12.9798 1.08123 12.5555 1.65423 11.9993 2.018C12.5395 1.95385 13.0631 1.79055 13.544 1.5631C13.179 2.14485 12.7227 2.66317 12.1991 3.08162Z" fill="#1D1D1D"/>
</svg>
